<svg xmlns="http://www.w3.org/2000/svg" xmlns:xlink="http://www.w3.org/1999/xlink" viewBox="0,0,256,256" width="96px" height="96px"><g fill="#fcd26c" fill-rule="nonzero" stroke="none" stroke-width="1" stroke-linecap="butt" stroke-linejoin="miter" stroke-miterlimit="10" stroke-dasharray="" stroke-dashoffset="0" font-family="none" font-weight="none" font-size="none" text-anchor="none" style="mix-blend-mode: normal"><g transform="scale(5.33333,5.33333)"><path d="M34.399,6.059c0.534,-0.114 1.023,-0.216 1.512,-0.325c0.039,-0.009 0.096,-0.069 0.097,-0.105c0.005,-0.539 0.004,-1.078 0.004,-1.629c-0.512,0.117 -0.994,0.223 -1.473,0.343c-0.055,0.014 -0.133,0.095 -0.133,0.146c-0.01,0.509 -0.007,1.02 -0.007,1.57zM36.013,44c0,-0.55 0.003,-1.083 -0.007,-1.616c-0.001,-0.046 -0.091,-0.116 -0.15,-0.13c-0.308,-0.075 -0.618,-0.137 -0.929,-0.201c-0.169,-0.035 -0.339,-0.067 -0.528,-0.104c0,0.54 -0.003,1.043 0.004,1.545c0.001,0.053 0.053,0.143 0.096,0.153c0.494,0.123 0.991,0.233 1.514,0.353zM33.996,6.141c0,-0.581 0,-1.122 0,-1.677c-0.362,0.074 -0.709,0.144 -1.056,0.217c-0.552,0.117 -0.552,0.118 -0.552,0.697c0,0.35 0,0.698 0,1.068c0.56,-0.106 1.082,-0.205 1.608,-0.305zM32.388,41.555c0,0.546 -0.003,1.042 0.004,1.537c0.001,0.045 0.053,0.122 0.093,0.13c0.498,0.109 0.998,0.209 1.511,0.313c0,-0.566 0,-1.114 0,-1.677c-0.53,-0.1 -1.053,-0.198 -1.608,-0.303zM30.389,6.784c0.513,-0.084 0.986,-0.158 1.457,-0.244c0.057,-0.01 0.147,-0.083 0.148,-0.13c0.01,-0.502 0.007,-1.004 0.007,-1.534c-0.53,0.094 -1.031,0.182 -1.531,0.277c-0.033,0.006 -0.077,0.077 -0.077,0.119c-0.005,0.495 -0.004,0.99 -0.004,1.512zM29.993,41.153c-0.541,-0.078 -1.066,-0.154 -1.6,-0.231c0,0.543 0,1.066 0,1.59c0.54,0.085 1.064,0.168 1.6,0.252c0,-0.544 0,-1.062 0,-1.611zM24.313,7.538c0.519,-0.05 1.023,-0.097 1.528,-0.152c0.038,-0.004 0.099,-0.064 0.099,-0.1c0.007,-0.483 0.004,-0.967 0.004,-1.47c-0.567,0.062 -1.1,0.12 -1.631,0.178c0,0.523 0,1.023 0,1.544zM23.902,41.965c0,-0.35 0,-0.679 0,-1.009c0,-0.517 0,-0.52 -0.507,-0.569c-0.367,-0.036 -0.734,-0.061 -1.114,-0.091c0,0.523 0,1.016 0,1.532c0.537,0.046 1.065,0.091 1.621,0.137zM23.889,6.033c-0.553,0.048 -1.08,0.094 -1.607,0.14c0,0.518 0,1.01 0,1.528c0.542,-0.042 1.07,-0.082 1.607,-0.123c0,-0.521 0,-1.021 0,-1.545zM26.349,42.233c0.539,0.071 1.065,0.142 1.604,0.213c0,-0.539 0,-1.054 0,-1.584c-0.538,-0.065 -1.064,-0.128 -1.604,-0.193c0,0.533 0,1.034 0,1.564zM27.953,5.552c-0.545,0.073 -1.076,0.144 -1.599,0.215c0,0.532 0,1.039 0,1.564c0.545,-0.066 1.071,-0.13 1.599,-0.194c0,-0.539 0,-1.054 0,-1.585zM20.245,6.296c0,0.521 0,1.017 0,1.527c0.551,-0.032 1.081,-0.063 1.609,-0.095c0,-0.519 0,-1.012 0,-1.523c-0.54,0.031 -1.064,0.06 -1.609,0.091zM21.857,40.269c-0.555,-0.029 -1.082,-0.057 -1.634,-0.085c0,0.485 -0.005,0.939 0.007,1.392c0.002,0.048 0.098,0.128 0.157,0.135c0.237,0.028 0.476,0.034 0.716,0.046c0.251,0.013 0.501,0.025 0.754,0.037c0,-0.518 0,-1.01 0,-1.525zM16.165,41.594c0.541,0 1.07,0 1.609,0c0,-0.488 0,-0.979 0,-1.494c-0.538,0 -1.067,0 -1.609,0c0,0.483 0,0.967 0,1.494zM18.205,41.645c0.552,0 1.08,0 1.607,0c0,-0.491 0,-0.977 0,-1.496c-0.54,0 -1.069,0 -1.607,0c0,0.48 0,0.965 0,1.496zM17.774,7.898c0,-0.52 0,-1.006 0,-1.49c-0.542,0 -1.071,0 -1.603,0c0,0.515 0,1.004 0,1.49c0.544,0 1.067,0 1.603,0zM14.117,7.897c0.54,0 1.07,0 1.607,0c0,-0.495 0,-0.984 0,-1.494c-0.545,0 -1.075,0 -1.607,0c0,0.502 0,0.988 0,1.494zM36.006,8.006c-0.55,0.103 -1.076,0.203 -1.588,0.3c0,0.51 0,0.984 0,1.487c0.543,-0.092 1.064,-0.18 1.588,-0.269c0,-0.51 0,-0.994 0,-1.518zM34.399,38.205c0,0.294 -0.003,0.544 0.001,0.795c0.003,0.226 -0.064,0.512 0.046,0.659c0.099,0.132 0.395,0.116 0.606,0.157c0.313,0.061 0.627,0.116 0.945,0.173c0,-0.527 0,-1.017 0,-1.515c-0.53,-0.09 -1.045,-0.177 -1.598,-0.269zM37.997,38.845c-0.529,-0.099 -1.043,-0.195 -1.571,-0.294c0,0.52 0,1.014 0,1.523c0.523,0.109 1.041,0.216 1.571,0.325c0,-0.523 0,-1.026 0,-1.554zM36.43,9.45c0.535,-0.102 1.054,-0.201 1.565,-0.298c0,-0.537 0,-1.039 0,-1.554c-0.53,0.11 -1.049,0.219 -1.565,0.327c0,0.516 0,1.009 0,1.525zM37.994,5.649c-0.498,0.114 -0.988,0.224 -1.474,0.342c-0.04,0.009 -0.097,0.066 -0.097,0.1c-0.007,0.477 -0.004,0.954 -0.004,1.448c0.543,-0.116 1.055,-0.225 1.576,-0.337c-0.001,-0.512 -0.001,-1.014 -0.001,-1.553zM32.397,10.101c0.55,-0.083 1.073,-0.162 1.594,-0.241c0,-0.501 0,-0.983 0,-1.482c-0.542,0.09 -1.064,0.177 -1.594,0.264c0,0.488 0,0.957 0,1.459zM33.989,39.619c0,-0.512 0,-0.995 0,-1.481c-0.536,-0.081 -1.054,-0.158 -1.588,-0.238c0,0.496 0,0.971 0,1.457c0.53,0.087 1.048,0.173 1.588,0.262zM33.994,41.482c0,-0.503 0,-0.987 0,-1.483c-0.534,-0.09 -1.055,-0.179 -1.594,-0.27c0,0.497 0,0.972 0,1.457c0.532,0.098 1.054,0.196 1.594,0.296zM33.996,6.519c-0.498,0.092 -0.985,0.179 -1.47,0.276c-0.051,0.01 -0.132,0.075 -0.133,0.116c-0.009,0.445 -0.006,0.89 -0.006,1.363c0.557,-0.095 1.08,-0.184 1.609,-0.274c0,-0.503 0,-0.988 0,-1.481zM25.931,40.27c0,-0.481 0,-0.924 0,-1.381c-0.549,-0.048 -1.082,-0.095 -1.618,-0.142c0,0.476 0,0.913 0,1.364c0.539,0.053 1.068,0.106 1.618,0.159zM24.307,38.399c0.553,0.047 1.086,0.092 1.611,0.137c0.015,-0.043 0.024,-0.058 0.024,-0.073c0.002,-0.267 0.003,-0.534 0.004,-0.801c0.001,-0.49 0,-0.49 -0.468,-0.534c-0.046,-0.004 -0.091,-0.015 -0.138,-0.018c-0.342,-0.024 -0.684,-0.048 -1.034,-0.072c0.001,0.469 0.001,0.899 0.001,1.361zM8.013,11.349c0,0.465 0,0.901 0,1.359c0.541,0.03 1.07,0.057 1.605,0.087c0,-0.466 0,-0.903 0,-1.356c-0.541,-0.03 -1.068,-0.06 -1.605,-0.09zM8.012,38.367c0.546,-0.038 1.073,-0.076 1.607,-0.113c0,-0.459 0,-0.895 0,-1.352c-0.541,0.035 -1.069,0.068 -1.607,0.103c0,0.456 0,0.893 0,1.362zM8.001,14.809c0,0.393 -0.003,0.807 0.005,1.221c0.001,0.037 0.078,0.102 0.12,0.103c0.492,0.007 0.982,0.004 1.488,0.004c0,-0.409 0,-0.85 0,-1.328c-0.541,0 -1.064,0 -1.613,0zM8.013,17.857c0.544,0 1.067,0 1.603,0c0,-0.432 0,-0.875 0,-1.348c-0.541,0 -1.065,0 -1.603,0c0,0.424 0,0.861 0,1.348zM9.621,35.203c-0.551,0.031 -1.079,0.062 -1.607,0.091c0,0.468 0,0.905 0,1.361c0.543,-0.034 1.07,-0.066 1.607,-0.099c0,-0.454 0,-0.884 0,-1.353zM9.621,19.914c-0.55,0 -1.071,0 -1.605,0c0,0.444 0,0.886 0,1.347c0.545,0 1.073,0 1.605,0c0,-0.451 0,-0.88 0,-1.347zM9.623,26.75c-0.551,0 -1.079,0 -1.606,0c0,0.463 0,0.905 0,1.319c0.545,0 1.073,0 1.606,0c0,-0.459 0,-0.882 0,-1.319zM8.012,29.777c0.542,0 1.07,0 1.606,0c0,-0.47 0,-0.905 0,-1.327c-0.542,0 -1.07,0 -1.606,0c0,0.468 0,0.905 0,1.327zM17.78,9.937c-0.551,0 -1.081,0 -1.609,0c0,0.455 0,0.889 0,1.311c0.548,0 1.076,0 1.609,0c0,-0.449 0,-0.872 0,-1.311zM15.728,9.933c-0.545,0 -1.074,0 -1.611,0c0,0.443 0,0.872 0,1.321c0.539,0 1.069,0 1.611,0c0,-0.432 0,-0.862 0,-1.321zM14.121,19.627c0.542,0 1.07,0 1.604,0c0,-0.447 0,-0.88 0,-1.313c-0.545,0 -1.074,0 -1.604,0c0,0.446 0,0.875 0,1.313zM14.118,29.685c0.553,0 1.082,0 1.611,0c0,-0.452 0,-0.882 0,-1.314c-0.541,0 -1.07,0 -1.611,0c0,0.449 0,0.878 0,1.314zM13.686,21.655c-0.547,0 -1.076,0 -1.612,0c0,0.445 0,0.875 0,1.323c0.542,0 1.072,0 1.612,0c0,-0.44 0,-0.871 0,-1.323zM14.126,21.666c0,0.448 0,0.882 0,1.312c0.547,0 1.076,0 1.603,0c0,-0.446 0,-0.876 0,-1.312c-0.543,0 -1.072,0 -1.603,0zM10.043,21.277c0.539,0 1.068,0 1.598,0c0,-0.439 0,-0.87 0,-1.323c-0.538,0 -1.066,0 -1.598,0c0,0.44 0,0.87 0,1.323zM13.683,25.027c-0.548,0 -1.077,0 -1.612,0c0,0.448 0,0.878 0,1.318c0.539,0 1.07,0 1.612,0c0,-0.444 0,-0.874 0,-1.318zM15.736,25.023c-0.551,0 -1.08,0 -1.609,0c0,0.449 0,0.883 0,1.311c0.548,0 1.076,0 1.609,0c0,-0.441 0,-0.864 0,-1.311zM11.645,26.727c-0.551,0 -1.076,0 -1.601,0c0,0.458 0,0.887 0,1.315c0.539,0 1.067,0 1.601,0c0,-0.451 0,-0.881 0,-1.315zM11.639,24.671c0,-0.45 0,-0.885 0,-1.328c-0.538,0 -1.064,0 -1.591,0c0,0.451 0,0.886 0,1.328c0.541,0 1.062,0 1.591,0zM10.043,29.73c0.539,0 1.066,0 1.596,0c0,-0.461 0,-0.89 0,-1.309c-0.54,0 -1.067,0 -1.596,0c0,0.46 0,0.889 0,1.309zM10.043,38.23c0.54,-0.025 1.068,-0.05 1.595,-0.076c0,-0.459 0,-0.889 0,-1.346c-0.54,0.024 -1.068,0.049 -1.595,0.073c0,0.464 0,0.895 0,1.349zM13.688,33.43c-0.553,0 -1.082,0 -1.608,0c0,0.463 0,0.898 0,1.306c0.547,0 1.076,0 1.608,0c0,-0.459 0,-0.882 0,-1.306zM10.042,12.835c0.543,0 1.07,0 1.591,0c0,-0.426 0,-0.862 0,-1.331c-0.538,0 -1.058,0 -1.591,0c0,0.416 0,0.846 0,1.331zM12.073,31.379c0.553,0 1.081,0 1.61,0c0,-0.459 0,-0.887 0,-1.31c-0.542,0 -1.071,0 -1.61,0c0,0.453 0,0.881 0,1.31zM11.639,31.791c-0.539,0 -1.065,0 -1.594,0c0,0.471 0,0.907 0,1.317c0.541,0 1.068,0 1.594,0c0,-0.47 0,-0.899 0,-1.317zM16.163,38.066c0.557,0 1.085,0 1.608,0c0,-0.445 0,-0.873 0,-1.317c-0.544,0 -1.073,0 -1.608,0c0,0.441 0,0.871 0,1.317zM14.123,36.751c0,0.463 0,0.89 0,1.313c0.545,0 1.074,0 1.608,0c0,-0.448 0,-0.877 0,-1.313c-0.538,0 -1.067,0 -1.608,0zM11.639,34.808c0,-0.482 0,-0.91 0,-1.317c-0.539,0 -1.066,0 -1.596,0c0,0.47 0,0.898 0,1.317c0.535,0 1.056,0 1.596,0zM12.077,14.939c0,0.439 0,0.867 0,1.32c0.544,0 1.072,0 1.609,0c0,-0.434 0,-0.863 0,-1.32c-0.538,0 -1.068,0 -1.609,0zM10.04,14.518c0.544,0 1.065,0 1.596,0c0,-0.423 0,-0.857 0,-1.323c-0.541,0 -1.067,0 -1.596,0c0,0.432 0,0.854 0,1.323zM11.633,19.592c0,-0.447 0,-0.881 0,-1.336c-0.54,0 -1.062,0 -1.583,0c0,0.45 0,0.885 0,1.336c0.534,0 1.05,0 1.583,0zM13.69,26.709c-0.551,0 -1.081,0 -1.618,0c0,0.448 0,0.877 0,1.305c0.545,0 1.078,0 1.618,0c0,-0.449 0,-0.871 0,-1.305zM12.078,11.577c0,0.427 0,0.862 0,1.323c0.544,0 1.071,0 1.609,0c0,-0.43 0,-0.859 0,-1.323c-0.535,0 -1.064,0 -1.609,0zM10.051,30.097c0,0.48 0,0.915 0,1.329c0.541,0 1.062,0 1.587,0c0,-0.469 0,-0.903 0,-1.329c-0.536,0 -1.057,0 -1.587,0zM12.073,38.097c0.551,0 1.08,0 1.61,0c0,-0.464 0,-0.893 0,-1.306c-0.542,0 -1.07,0 -1.61,0c0,0.459 0,0.888 0,1.306zM13.69,38.47c-0.55,0 -1.079,0 -1.61,0c0,0.47 0,0.906 0,1.314c0.548,0 1.076,0 1.61,0c0,-0.465 0,-0.889 0,-1.314zM12.073,36.419c0.546,0 1.08,0 1.608,0c0,-0.465 0,-0.894 0,-1.31c-0.544,0 -1.072,0 -1.608,0c0,0.462 0,0.891 0,1.31zM15.73,16.635c-0.548,0 -1.076,0 -1.61,0c0,0.441 0,0.869 0,1.317c0.541,0 1.07,0 1.61,0c0,-0.432 0,-0.862 0,-1.317zM13.681,17.939c0,-0.45 0,-0.877 0,-1.324c-0.544,0 -1.073,0 -1.6,0c0,0.442 0,0.877 0,1.324c0.543,0 1.065,0 1.6,0zM14.121,23.342c0,0.45 0,0.877 0,1.31c0.543,0 1.071,0 1.609,0c0,-0.44 0,-0.868 0,-1.31c-0.538,0 -1.066,0 -1.609,0zM16.168,38.427c0,0.443 0,0.87 0,1.314c0.545,0 1.073,0 1.603,0c0,-0.445 0,-0.874 0,-1.314c-0.538,0 -1.061,0 -1.603,0zM16.162,9.564c0.557,0 1.087,0 1.607,0c0,-0.451 0,-0.88 0,-1.296c-0.548,0 -1.078,0 -1.607,0c0,0.445 0,0.868 0,1.296zM13.681,21.294c0,-0.441 0,-0.876 0,-1.317c-0.544,0 -1.072,0 -1.607,0c0,0.445 0,0.874 0,1.317c0.539,0 1.069,0 1.607,0zM14.122,30.05c0,0.454 0,0.883 0,1.31c0.545,0 1.075,0 1.605,0c0,-0.447 0,-0.876 0,-1.31c-0.538,0 -1.063,0 -1.605,0z"></path><path d="M34.399,6.059c0,-0.55 -0.004,-1.06 0.006,-1.57c0.001,-0.051 0.079,-0.132 0.133,-0.146c0.479,-0.12 0.962,-0.226 1.474,-0.343c0,0.551 0.002,1.09 -0.004,1.628c0,0.037 -0.057,0.097 -0.097,0.105c-0.488,0.11 -0.977,0.212 -1.512,0.326zM36.013,44c-0.522,-0.12 -1.019,-0.23 -1.513,-0.352c-0.043,-0.01 -0.095,-0.1 -0.096,-0.153c-0.008,-0.503 -0.004,-1.005 -0.004,-1.545c0.19,0.037 0.359,0.07 0.528,0.104c0.31,0.064 0.621,0.126 0.929,0.201c0.059,0.015 0.149,0.084 0.15,0.13c0.01,0.532 0.006,1.065 0.006,1.615zM33.996,6.141c-0.526,0.1 -1.047,0.199 -1.608,0.306c0,-0.37 0,-0.718 0,-1.068c0,-0.579 0,-0.58 0.552,-0.697c0.347,-0.074 0.695,-0.143 1.056,-0.217c0,0.555 0,1.095 0,1.676zM32.388,41.555c0.556,0.105 1.078,0.203 1.608,0.303c0,0.563 0,1.11 0,1.677c-0.513,-0.104 -1.013,-0.203 -1.511,-0.313c-0.04,-0.009 -0.092,-0.085 -0.093,-0.13c-0.006,-0.495 -0.004,-0.991 -0.004,-1.537zM30.389,6.784c0,-0.523 -0.002,-1.017 0.003,-1.511c0.001,-0.042 0.044,-0.112 0.077,-0.119c0.5,-0.096 1.001,-0.183 1.531,-0.277c0,0.53 0.004,1.032 -0.007,1.534c-0.001,0.046 -0.091,0.119 -0.148,0.13c-0.469,0.085 -0.943,0.159 -1.456,0.243zM29.993,41.153c0,0.549 0,1.067 0,1.611c-0.536,-0.084 -1.059,-0.167 -1.6,-0.252c0,-0.523 0,-1.046 0,-1.59c0.534,0.077 1.059,0.153 1.6,0.231zM24.313,7.538c0,-0.522 0,-1.021 0,-1.544c0.532,-0.058 1.064,-0.117 1.631,-0.178c0,0.503 0.003,0.987 -0.004,1.47c-0.001,0.035 -0.062,0.096 -0.099,0.1c-0.504,0.056 -1.009,0.103 -1.528,0.152zM23.902,41.965c-0.555,-0.047 -1.083,-0.091 -1.622,-0.137c0,-0.517 0,-1.009 0,-1.532c0.38,0.03 0.747,0.056 1.114,0.091c0.508,0.049 0.507,0.052 0.507,0.569c0.001,0.33 0.001,0.659 0.001,1.009zM23.889,6.033c0,0.524 0,1.024 0,1.544c-0.538,0.041 -1.065,0.082 -1.607,0.123c0,-0.517 0,-1.01 0,-1.528c0.527,-0.045 1.054,-0.091 1.607,-0.139zM26.349,42.233c0,-0.53 0,-1.031 0,-1.564c0.539,0.065 1.066,0.129 1.604,0.193c0,0.53 0,1.045 0,1.584c-0.539,-0.071 -1.066,-0.142 -1.604,-0.213zM27.953,5.552c0,0.53 0,1.046 0,1.585c-0.528,0.064 -1.055,0.128 -1.599,0.194c0,-0.525 0,-1.032 0,-1.564c0.523,-0.07 1.053,-0.142 1.599,-0.215zM20.245,6.296c0.545,-0.03 1.069,-0.06 1.609,-0.09c0,0.51 0,1.003 0,1.523c-0.528,0.031 -1.058,0.063 -1.609,0.095c0,-0.511 0,-1.007 0,-1.528zM21.857,40.269c0,0.516 0,1.007 0,1.525c-0.253,-0.012 -0.504,-0.024 -0.754,-0.037c-0.239,-0.013 -0.478,-0.018 -0.716,-0.046c-0.059,-0.007 -0.156,-0.086 -0.157,-0.135c-0.012,-0.453 -0.007,-0.907 -0.007,-1.392c0.552,0.028 1.08,0.055 1.634,0.085zM16.165,41.594c0,-0.527 0,-1.01 0,-1.494c0.543,0 1.071,0 1.609,0c0,0.515 0,1.006 0,1.494c-0.54,0 -1.068,0 -1.609,0zM18.205,41.645c0,-0.531 0,-1.017 0,-1.496c0.537,0 1.065,0 1.607,0c0,0.519 0,1.003 0,1.496c-0.527,0 -1.055,0 -1.607,0zM17.774,7.898c-0.536,0 -1.06,0 -1.603,0c0,-0.485 0,-0.975 0,-1.49c0.532,0 1.061,0 1.603,0c0,0.485 0,0.97 0,1.49zM14.117,7.897c0,-0.505 0,-0.991 0,-1.494c0.534,0 1.063,0 1.607,0c0,0.509 0,0.999 0,1.494c-0.536,0 -1.066,0 -1.607,0zM36.006,8.006c0,0.523 0,1.009 0,1.518c-0.524,0.089 -1.045,0.177 -1.588,0.269c0,-0.503 0,-0.977 0,-1.487c0.511,-0.097 1.038,-0.196 1.588,-0.3zM34.399,38.205c0.553,0.093 1.068,0.179 1.598,0.269c0,0.497 0,0.988 0,1.515c-0.318,-0.058 -0.632,-0.112 -0.945,-0.173c-0.211,-0.041 -0.507,-0.024 -0.606,-0.157c-0.11,-0.146 -0.042,-0.433 -0.046,-0.659c-0.004,-0.251 -0.001,-0.502 -0.001,-0.795zM37.997,38.845c0,0.528 0,1.03 0,1.556c-0.529,-0.11 -1.047,-0.217 -1.571,-0.325c0,-0.51 0,-1.003 0,-1.523c0.528,0.097 1.042,0.193 1.571,0.292zM36.43,9.45c0,-0.517 0,-1.01 0,-1.525c0.516,-0.108 1.035,-0.217 1.565,-0.327c0,0.516 0,1.017 0,1.554c-0.511,0.098 -1.03,0.197 -1.565,0.298zM37.994,5.649c0,0.539 0,1.041 0,1.553c-0.521,0.111 -1.033,0.221 -1.576,0.337c0,-0.494 -0.002,-0.97 0.004,-1.448c0.001,-0.036 0.057,-0.091 0.097,-0.101c0.487,-0.117 0.976,-0.227 1.475,-0.341zM32.397,10.101c0,-0.503 0,-0.971 0,-1.457c0.529,-0.088 1.052,-0.174 1.594,-0.264c0,0.498 0,0.98 0,1.482c-0.521,0.077 -1.044,0.156 -1.594,0.239zM33.989,39.619c-0.539,-0.09 -1.058,-0.175 -1.588,-0.263c0,-0.486 0,-0.962 0,-1.457c0.534,0.08 1.052,0.158 1.588,0.238c0,0.487 0,0.971 0,1.482zM33.994,41.482c-0.54,-0.101 -1.063,-0.197 -1.594,-0.297c0,-0.484 0,-0.96 0,-1.457c0.538,0.091 1.06,0.18 1.594,0.27c0,0.497 0,0.98 0,1.484zM33.996,6.519c0,0.493 0,0.977 0,1.481c-0.529,0.09 -1.052,0.179 -1.608,0.274c0,-0.473 -0.003,-0.919 0.006,-1.363c0.001,-0.041 0.081,-0.106 0.133,-0.116c0.485,-0.098 0.972,-0.185 1.469,-0.276zM25.931,40.27c-0.55,-0.054 -1.078,-0.105 -1.618,-0.157c0,-0.451 0,-0.889 0,-1.364c0.536,0.047 1.07,0.094 1.618,0.142c0,0.454 0,0.898 0,1.379zM24.307,38.399c0,-0.462 0,-0.892 0,-1.362c0.35,0.024 0.692,0.048 1.034,0.072c0.046,0.003 0.091,0.014 0.138,0.018c0.468,0.044 0.469,0.044 0.468,0.534c0,0.267 -0.002,0.534 -0.004,0.801c0,0.015 -0.009,0.029 -0.024,0.073c-0.526,-0.044 -1.059,-0.089 -1.612,-0.136zM8.013,11.349c0.537,0.03 1.064,0.06 1.605,0.09c0,0.452 0,0.89 0,1.356c-0.536,-0.029 -1.064,-0.057 -1.605,-0.087c0,-0.458 0,-0.894 0,-1.359zM8.012,38.367c0,-0.469 0,-0.906 0,-1.363c0.539,-0.034 1.066,-0.068 1.607,-0.103c0,0.457 0,0.893 0,1.352c-0.534,0.038 -1.061,0.076 -1.607,0.114zM8.001,14.809c0.55,0 1.072,0 1.613,0c0,0.478 0,0.92 0,1.328c-0.504,0 -0.996,0.003 -1.488,-0.004c-0.042,-0.001 -0.119,-0.066 -0.12,-0.103c-0.008,-0.414 -0.005,-0.828 -0.005,-1.221zM8.013,17.857c0,-0.487 0,-0.924 0,-1.348c0.538,0 1.062,0 1.603,0c0,0.472 0,0.916 0,1.348c-0.536,0 -1.06,0 -1.603,0zM9.621,35.203c0,0.469 0,0.898 0,1.353c-0.537,0.033 -1.064,0.065 -1.607,0.099c0,-0.456 0,-0.893 0,-1.361c0.528,-0.029 1.055,-0.059 1.607,-0.091zM9.621,19.914c0,0.467 0,0.897 0,1.347c-0.532,0 -1.06,0 -1.605,0c0,-0.461 0,-0.903 0,-1.347c0.534,0 1.055,0 1.605,0zM9.623,26.75c0,0.437 0,0.859 0,1.319c-0.533,0 -1.06,0 -1.606,0c0,-0.415 0,-0.857 0,-1.319c0.527,0 1.055,0 1.606,0zM8.012,29.777c0,-0.423 0,-0.859 0,-1.327c0.536,0 1.064,0 1.606,0c0,0.422 0,0.857 0,1.327c-0.536,0 -1.064,0 -1.606,0zM17.78,9.937c0,0.439 0,0.863 0,1.311c-0.533,0 -1.061,0 -1.609,0c0,-0.422 0,-0.856 0,-1.311c0.529,0 1.058,0 1.609,0zM15.728,9.933c0,0.46 0,0.889 0,1.321c-0.542,0 -1.07,0 -1.611,0c0,-0.449 0,-0.877 0,-1.321c0.537,0 1.066,0 1.611,0zM14.121,19.627c0,-0.438 0,-0.867 0,-1.313c0.53,0 1.058,0 1.604,0c0,0.433 0,0.866 0,1.313c-0.534,0 -1.062,0 -1.604,0zM14.118,29.685c0,-0.437 0,-0.866 0,-1.314c0.54,0 1.069,0 1.611,0c0,0.432 0,0.862 0,1.314c-0.529,0 -1.057,0 -1.611,0zM13.686,21.655c0,0.452 0,0.883 0,1.323c-0.539,0 -1.07,0 -1.612,0c0,-0.448 0,-0.877 0,-1.323c0.535,0 1.065,0 1.612,0zM14.126,21.666c0.531,0 1.06,0 1.603,0c0,0.437 0,0.866 0,1.312c-0.527,0 -1.055,0 -1.603,0c0,-0.43 0,-0.864 0,-1.312zM10.043,21.277c0,-0.453 0,-0.883 0,-1.323c0.532,0 1.06,0 1.598,0c0,0.454 0,0.884 0,1.323c-0.53,0 -1.058,0 -1.598,0zM13.683,25.027c0,0.444 0,0.874 0,1.318c-0.542,0 -1.072,0 -1.612,0c0,-0.44 0,-0.87 0,-1.318c0.535,0 1.065,0 1.612,0zM15.736,25.023c0,0.447 0,0.87 0,1.311c-0.533,0 -1.061,0 -1.609,0c0,-0.429 0,-0.863 0,-1.311c0.528,0 1.058,0 1.609,0zM11.645,26.727c0,0.434 0,0.864 0,1.315c-0.534,0 -1.06,0 -1.601,0c0,-0.428 0,-0.857 0,-1.315c0.524,0 1.05,0 1.601,0zM11.639,24.671c-0.53,0 -1.052,0 -1.591,0c0,-0.442 0,-0.876 0,-1.328c0.527,0 1.053,0 1.591,0c0,0.443 0,0.88 0,1.328zM10.043,29.73c0,-0.42 0,-0.85 0,-1.309c0.528,0 1.056,0 1.596,0c0,0.418 0,0.847 0,1.309c-0.53,0 -1.057,0 -1.596,0zM10.043,38.23c0,-0.456 0,-0.885 0,-1.349c0.528,-0.024 1.055,-0.048 1.595,-0.073c0,0.457 0,0.887 0,1.346c-0.527,0.026 -1.054,0.051 -1.595,0.076zM13.688,33.43c0,0.423 0,0.846 0,1.306c-0.533,0 -1.061,0 -1.608,0c0,-0.407 0,-0.843 0,-1.306c0.526,0 1.055,0 1.608,0zM10.042,12.835c0,-0.485 0,-0.915 0,-1.331c0.533,0 1.053,0 1.591,0c0,0.47 0,0.905 0,1.331c-0.521,0 -1.047,0 -1.591,0zM12.073,31.379c0,-0.429 0,-0.857 0,-1.31c0.539,0 1.068,0 1.61,0c0,0.423 0,0.85 0,1.31c-0.53,0 -1.057,0 -1.61,0zM11.639,31.791c0,0.417 0,0.846 0,1.317c-0.526,0 -1.052,0 -1.594,0c0,-0.41 0,-0.845 0,-1.317c0.528,0 1.055,0 1.594,0zM16.163,38.066c0,-0.447 0,-0.876 0,-1.317c0.535,0 1.064,0 1.608,0c0,0.444 0,0.872 0,1.317c-0.523,0 -1.05,0 -1.608,0zM14.123,36.751c0.541,0 1.07,0 1.608,0c0,0.436 0,0.864 0,1.313c-0.534,0 -1.063,0 -1.608,0c0,-0.421 0,-0.849 0,-1.313zM11.639,34.808c-0.539,0 -1.062,0 -1.596,0c0,-0.418 0,-0.848 0,-1.317c0.529,0 1.057,0 1.596,0c0,0.406 0,0.835 0,1.317zM12.077,14.939c0.541,0 1.07,0 1.609,0c0,0.456 0,0.885 0,1.32c-0.537,0 -1.065,0 -1.609,0c0,-0.452 0,-0.881 0,-1.32zM10.04,14.518c0,-0.469 0,-0.891 0,-1.323c0.529,0 1.055,0 1.596,0c0,0.465 0,0.899 0,1.323c-0.531,0 -1.052,0 -1.596,0zM11.633,19.592c-0.532,0 -1.049,0 -1.583,0c0,-0.45 0,-0.886 0,-1.336c0.522,0 1.043,0 1.583,0c0,0.454 0,0.889 0,1.336zM13.69,26.709c0,0.434 0,0.856 0,1.305c-0.539,0 -1.073,0 -1.618,0c0,-0.429 0,-0.857 0,-1.305c0.537,0 1.065,0 1.618,0zM12.078,11.577c0.545,0 1.074,0 1.609,0c0,0.463 0,0.892 0,1.323c-0.537,0 -1.065,0 -1.609,0c0,-0.461 0,-0.896 0,-1.323zM10.051,30.097c0.53,0 1.052,0 1.587,0c0,0.425 0,0.86 0,1.329c-0.524,0 -1.046,0 -1.587,0c0,-0.415 0,-0.85 0,-1.329zM12.073,38.097c0,-0.417 0,-0.846 0,-1.306c0.539,0 1.068,0 1.61,0c0,0.413 0,0.842 0,1.306c-0.53,0 -1.058,0 -1.61,0zM13.69,38.47c0,0.425 0,0.85 0,1.314c-0.534,0 -1.062,0 -1.61,0c0,-0.408 0,-0.843 0,-1.314c0.531,0 1.06,0 1.61,0zM12.073,36.419c0,-0.419 0,-0.848 0,-1.31c0.535,0 1.064,0 1.608,0c0,0.416 0,0.844 0,1.31c-0.528,0 -1.062,0 -1.608,0zM15.73,16.635c0,0.456 0,0.884 0,1.317c-0.54,0 -1.069,0 -1.61,0c0,-0.448 0,-0.876 0,-1.317c0.533,0 1.062,0 1.61,0zM13.681,17.939c-0.534,0 -1.057,0 -1.6,0c0,-0.448 0,-0.882 0,-1.324c0.526,0 1.055,0 1.6,0c0,0.447 0,0.875 0,1.324zM14.121,23.342c0.542,0 1.07,0 1.609,0c0,0.443 0,0.87 0,1.31c-0.538,0 -1.066,0 -1.609,0c0,-0.433 0,-0.861 0,-1.31zM16.168,38.427c0.541,0 1.064,0 1.603,0c0,0.441 0,0.869 0,1.314c-0.53,0 -1.058,0 -1.603,0c0,-0.444 0,-0.871 0,-1.314zM16.162,9.564c0,-0.428 0,-0.851 0,-1.296c0.528,0 1.058,0 1.607,0c0,0.416 0,0.844 0,1.296c-0.52,0 -1.049,0 -1.607,0zM13.681,21.294c-0.539,0 -1.068,0 -1.607,0c0,-0.443 0,-0.873 0,-1.317c0.535,0 1.064,0 1.607,0c0,0.441 0,0.876 0,1.317zM14.122,30.05c0.543,0 1.067,0 1.605,0c0,0.435 0,0.863 0,1.31c-0.53,0 -1.06,0 -1.605,0c0,-0.428 0,-0.857 0,-1.31z"></path><path d="M39.938,30.085c-0.1,-1.012 -0.364,-1.973 -0.869,-2.863c-0.157,-0.277 -0.321,-0.44 -0.663,-0.407c-0.282,0.027 -0.571,-0.019 -0.857,-0.032c-0.368,-0.017 -0.736,-0.034 -1.117,-0.052c0,-0.561 -0.009,-1.096 0.005,-1.63c0.004,-0.166 -0.052,-0.245 -0.197,-0.289c-0.636,-0.191 -1.269,-0.399 -1.91,-0.573c-0.369,-0.1 -0.753,-0.145 -1.14,-0.217c0,-0.19 0,-0.363 0,-0.536c0,-0.619 0.001,-0.616 0.583,-0.822c1.011,-0.357 2.011,-0.734 2.868,-1.415c0.958,-0.762 1.647,-1.723 2.053,-2.886c0.368,-1.05 0.4,-2.143 0.322,-3.242c-0.06,-0.843 -0.249,-1.658 -0.64,-2.411c-0.306,-0.59 -0.746,-1.066 -1.306,-1.412c-1.188,-0.733 -2.496,-0.93 -3.859,-0.853c-0.398,0.023 -0.797,0.05 -1.201,0.075c-0.008,-0.137 -0.015,-0.25 -0.021,-0.369c-0.533,0.068 -1.041,0.132 -1.558,0.197c0,-0.488 0,-0.935 0,-1.395c0.525,-0.079 1.042,-0.157 1.56,-0.236c0,-0.621 0,-1.217 0,-1.807c-1.887,0.267 -3.765,0.533 -5.659,0.801c0,1.143 0,2.283 0,3.463c-1.185,0.054 -2.356,0.108 -3.541,0.162c0,-0.477 0,-0.923 0,-1.382c0.509,-0.03 1.007,-0.058 1.499,-0.086c0,-0.683 0,-1.33 0,-1.95c-2.041,0.114 -4.06,0.228 -6.102,0.342c0,1.107 0,2.205 0,3.327c-1.367,0 -2.711,0 -4.068,0c0,0.57 0,1.116 0,1.704c0.535,0 1.057,0 1.582,0c0,0.47 0,0.897 0,1.317c-0.541,0 -1.064,0 -1.578,0c0,0.56 0,1.107 0,1.678c0.68,0 1.342,0 2.036,0c0,1.805 0,3.587 0,5.39c0.538,0 1.046,0 1.555,0c0,0.442 0,0.861 0,1.304c-0.524,0 -1.032,0 -1.55,0c0,0.69 0,1.354 0,2.05c0.526,0 1.039,0 1.557,0c0,0.444 0,0.859 0,1.305c-0.523,0 -1.037,0 -1.577,0c0,1.806 0,3.582 0,5.38c-0.691,0 -1.353,0 -2.02,0c0,1.146 0,2.268 0,3.39c0.524,0 1.032,0 1.571,0c0,0.431 0,0.85 0,1.303c0.848,0 1.666,0 2.512,0c0,1.14 0,2.245 0,3.343c1.379,0.062 2.728,0.123 4.112,0.184c0,-0.432 0,-0.851 0,-1.287c0.54,0.048 1.046,0.092 1.578,0.139c0,-0.72 0,-1.417 0,-2.141c0.828,0.064 1.627,0.126 2.448,0.19c0,1.17 0,2.316 0,3.445c1.896,0.268 3.769,0.533 5.662,0.801c0,-1.202 0,-2.396 0,-3.613c0.339,0.024 0.64,0.046 0.94,0.068c1.039,0.074 2.069,0.06 3.086,-0.217c1.876,-0.51 3.151,-1.643 3.664,-3.588c0.317,-1.195 0.361,-2.416 0.24,-3.647zM36.449,13.411c0.5,-0.075 1.008,-0.15 1.545,-0.23c0,0.527 0,1.036 0,1.572c-0.507,0.063 -1.017,0.127 -1.545,0.193c0,-0.513 0,-1.01 0,-1.535zM36.443,17.338c0.515,-0.049 1.02,-0.097 1.544,-0.147c0,0.521 0,1.034 0,1.575c-0.506,0.034 -1.017,0.069 -1.544,0.104c0,-0.532 0,-1.025 0,-1.532zM20.265,13.148c0.538,-0.027 1.058,-0.052 1.592,-0.078c0,0.456 0,0.884 0,1.336c-0.533,0.024 -1.054,0.049 -1.592,0.073c0,-0.448 0,-0.876 0,-1.331zM21.232,18.325c0,0.423 0,0.842 0,1.281c-0.517,0 -1.038,0 -1.577,0c0,-0.417 0,-0.836 0,-1.281c0.527,0 1.043,0 1.577,0zM18.24,13.209c0.526,0 1.04,0 1.569,0v0c0,0.407 0,0.835 0,1.297v0c-0.523,0 -1.038,0 -1.569,0c0,-0.404 0,-0.832 0,-1.297zM17.374,17.939v0c0,-0.435 0,-0.857 0,-1.292v0c0.524,0 1.046,0 1.584,0c0,0.437 0,0.857 0,1.292c-0.539,0 -1.056,0 -1.584,0zM17.777,34.733c-0.527,0 -1.047,0 -1.582,0v0c0,-0.413 0,-0.841 0,-1.296v0c0.525,0 1.04,0 1.582,0c0,0.421 0,0.842 0,1.296zM19.409,31.353v0c-0.533,0 -1.054,0 -1.589,0v0c0,-0.421 0,-0.842 0,-1.284v0c0.525,0 1.045,0 1.589,0v0c0,0.426 0,0.847 0,1.284zM19.41,29.671c-0.53,0 -1.051,0 -1.588,0v0c0,-0.418 0,-0.838 0,-1.283v0c0.527,0 1.047,0 1.588,0c0,0.43 0,0.845 0,1.283zM19.461,23.347c0.521,0 1.041,0 1.573,0c0,0.431 0,0.86 0,1.303c-0.52,0 -1.034,0 -1.573,0c0,-0.437 0,-0.86 0,-1.303zM21.863,38.056c-0.528,0 -1.055,0 -1.595,0c0,-0.434 0,-0.848 0,-1.283c0.528,0 1.054,0 1.595,0c0,0.425 0,0.847 0,1.283zM23.242,15.501c0.135,-0.009 4.416,-0.225 4.932,-0.239c3.339,-0.086 3.249,1.373 3.273,2.435c0.044,1.949 -0.755,3.702 -4.77,4.017c-0.136,0.01 -3.388,0.149 -3.435,0.149c0,-2.127 0,-4.235 0,-6.362zM25.98,34.928v0v0c-0.263,-0.012 -1.308,-0.062 -1.575,-0.074c0,-0.437 0,-0.872 0,-1.285c0.521,0 1.042,0 1.575,0v0c0,0.47 0,0.9 0,1.359zM30.042,35.222c-0.39,-0.03 -1.44,-0.114 -1.574,-0.124c0,-0.449 0,-0.89 0,-1.36v0v0c0.4,0.029 0.789,0.056 1.181,0.083c0.131,0.01 0.262,0.018 0.393,0.028c0,0.459 0,0.901 0,1.373zM32.239,30.984c-0.097,0.371 -0.37,1.762 -3.593,1.758c-0.789,-0.001 -5.291,-0.189 -5.406,-0.189v0v0c0,-2.147 0,-4.239 0,-6.363c0.1,0 2.961,0.062 3.436,0.088c5.023,0.271 5.144,1.256 5.654,3.089c0.147,0.526 0.049,1.085 -0.091,1.617zM37.993,32.81c-0.517,-0.061 -1.022,-0.121 -1.543,-0.183c0,-0.504 0,-1.003 0,-1.537c0.507,0.05 1.017,0.099 1.543,0.15c0,0.537 0,1.044 0,1.57z"></path></g></g></svg>