<svg xmlns="http://www.w3.org/2000/svg" xmlns:xlink="http://www.w3.org/1999/xlink" viewBox="0,0,256,256" width="96px" height="96px"><defs><linearGradient x1="10.608" y1="4.776" x2="35.821" y2="40.968" gradientUnits="userSpaceOnUse" id="color-1"><stop offset="0" stop-color="#ffe47c"></stop><stop offset="1" stop-color="#fcd26c"></stop></linearGradient></defs><g fill="none" fill-rule="nonzero" stroke="none" stroke-width="1" stroke-linecap="butt" stroke-linejoin="miter" stroke-miterlimit="10" stroke-dasharray="" stroke-dashoffset="0" font-family="none" font-weight="none" font-size="none" text-anchor="none" style="mix-blend-mode: normal"><g transform="scale(5.33333,5.33333)"><path d="M24,4c-11.03,0 -20,8.976 -20,20c0,11.024 8.97,20 19.999,20c11.031,0 20.001,-8.976 20.001,-20c0,-11.024 -8.97,-20 -20,-20z" fill="url(#color-1)"></path><path d="M24,43.001c-10.479,0 -19.005,-8.524 -19.005,-19.001c0,-10.476 8.525,-18.999 19.004,-18.999c10.48,0 19.006,8.523 19.006,18.999c0,10.477 -8.526,19.001 -19.005,19.001zM20.778,38.651c1.052,0.232 2.134,0.349 3.223,0.349c1.344,0 2.682,-0.181 3.984,-0.539l-3.676,-10.072zM9.416,20.488c-0.276,1.144 -0.415,2.32 -0.415,3.512c0,4.864 2.259,9.284 6.111,12.093zM38.753,21.289c-0.211,0.895 -0.507,1.818 -0.893,2.783l-3.829,11.082c3.138,-2.832 4.969,-6.889 4.969,-11.154c0,-0.912 -0.083,-1.818 -0.247,-2.711zM20.025,30.673l2.442,-7.328l-2.265,-6.308c-0.613,-0.051 -1.086,-0.112 -1.086,-0.112c-0.854,-0.053 -1.5,-0.783 -1.47,-1.694c0.03,-0.921 0.735,-1.616 1.641,-1.616l0.222,0.014c1.825,0.125 3.188,0.188 4.051,0.188c1.606,0 4.162,-0.195 4.188,-0.197c0.001,0 0.002,0 0.003,0c1.006,0 1.715,0.637 1.77,1.549c0.045,0.76 -0.455,1.633 -1.473,1.757c-0.078,0.009 -0.294,0.034 -0.596,0.062l4.483,13.401l0.693,-2.308c0.786,-2.016 1.177,-3.647 1.177,-4.888c0,-1.386 -0.644,-2.439 -1.211,-3.368c-0.117,-0.191 -0.228,-0.373 -0.327,-0.546l-0.197,-0.318c-0.778,-1.26 -1.511,-2.449 -1.511,-3.931c0,-1.329 0.831,-2.61 2.067,-3.307c-2.505,-1.762 -5.535,-2.723 -8.625,-2.723c-4.183,0 -8.113,1.719 -10.948,4.751c1.342,-0.057 2.676,-0.159 2.693,-0.16l0.134,-0.005c0.882,0 1.588,0.668 1.641,1.554c0.045,0.76 -0.457,1.634 -1.478,1.757c-0.068,0.008 -0.285,0.033 -0.592,0.062z" fill="#000000" opacity="0.05"></path><path d="M24,42.501c-10.204,0 -18.505,-8.299 -18.505,-18.501c0,-10.2 8.301,-18.499 18.504,-18.499c10.204,0 18.506,8.299 18.506,18.499c0,10.202 -8.301,18.501 -18.505,18.501zM20.126,39.009c1.258,0.326 2.559,0.491 3.875,0.491c1.571,0 3.128,-0.238 4.637,-0.709l-4.343,-11.898zM9.365,18.892c-0.574,1.64 -0.864,3.353 -0.864,5.108c0,5.553 2.88,10.554 7.599,13.339zM38.622,18.85c-0.106,1.604 -0.502,3.227 -1.225,5.036l-4.404,12.743c4.046,-2.89 6.507,-7.608 6.507,-12.629c0,-1.755 -0.3,-3.5 -0.878,-5.15zM20.026,32.253l2.971,-8.915l-2.433,-6.775c-0.747,-0.052 -1.384,-0.134 -1.384,-0.134c-0.606,-0.039 -1.055,-0.537 -1.034,-1.182c0.021,-0.646 0.512,-1.132 1.141,-1.132c0.119,0.005 2.741,0.202 4.272,0.202c1.636,0 4.2,-0.196 4.226,-0.198c0.003,0 0.005,0 0.008,0c0.714,0 1.191,0.455 1.229,1.081c0.033,0.545 -0.312,1.143 -1.034,1.23c-0.028,0.003 -0.539,0.064 -1.211,0.114l5.185,15.498l1.146,-3.816c0.8,-2.048 1.198,-3.728 1.198,-5.032c0,-1.527 -0.712,-2.693 -1.285,-3.629c-0.114,-0.187 -0.223,-0.364 -0.32,-0.534l-0.205,-0.332c-0.739,-1.197 -1.437,-2.328 -1.437,-3.669c0,-1.431 1.13,-2.757 2.557,-3.191c-2.723,-2.161 -6.096,-3.339 -9.615,-3.339c-4.695,0 -9.141,2.146 -12.074,5.785c1.621,-0.024 3.834,-0.194 3.858,-0.196l0.094,-0.003c0.624,0 1.104,0.456 1.142,1.083c0.033,0.546 -0.313,1.144 -1.039,1.231c-0.027,0.003 -0.535,0.064 -1.208,0.114z" fill="#000000" opacity="0.07"></path><path d="M23.999,6.001c-9.93,0 -18.004,8.075 -18.004,17.999c0,9.924 8.077,18.001 18.005,18.001c9.929,0 18.005,-8.077 18.005,-18.001c0,-9.924 -8.076,-17.999 -18.006,-17.999zM8.001,24c0,-2.324 0.497,-4.521 1.384,-6.512l7.634,20.912c-5.338,-2.594 -9.018,-8.064 -9.018,-14.4zM24.001,40c-1.57,0 -3.084,-0.226 -4.52,-0.652l4.8,-13.952l4.918,13.477c0.033,0.077 0.078,0.149 0.118,0.22c-1.667,0.583 -3.455,0.907 -5.316,0.907zM26.095,16.085c0.962,-0.047 1.832,-0.152 1.832,-0.152c0.861,-0.104 0.757,-1.373 -0.104,-1.316c0,0 -2.589,0.2 -4.264,0.2c-1.569,0 -4.217,-0.2 -4.217,-0.2c-0.86,-0.059 -0.96,1.26 -0.098,1.316c0,0 0.818,0.106 1.679,0.152l2.603,7.248l-3.5,10.501l-5.931,-17.778c0.964,-0.047 1.828,-0.152 1.828,-0.152c0.866,-0.104 0.761,-1.373 -0.099,-1.316c0,0 -2.595,0.2 -4.264,0.2c-0.304,0 -0.383,0.035 -0.611,-0.039c2.899,-4.083 7.663,-6.749 13.052,-6.749c4.167,0 7.96,1.584 10.804,4.198c-0.071,-0.002 -0.135,-0.008 -0.206,-0.008c-1.57,0 -3.041,1.375 -3.041,2.84c0,1.315 0.763,2.423 1.576,3.752c0.607,1.062 1.67,2.435 1.67,4.412c0,1.375 -0.405,3.095 -1.219,5.175l-1.599,5.326zM32.047,37.835l4.885,-14.135c0.913,-2.286 1.219,-4.109 1.219,-5.737c0,-0.586 -0.037,-1.135 -0.108,-1.645c1.246,2.286 1.957,4.901 1.957,7.682c0,5.902 -3.195,11.063 -7.953,13.835z" fill="#ffffff"></path></g></g></svg>